<mxfile host="app.diagrams.net" modified="2023-10-02T13:33:22.269Z" agent="Mozilla/5.0 (Windows NT 10.0; Win64; x64; rv:109.0) Gecko/20100101 Firefox/118.0" etag="b8ceVTT1mpX2P-fZKIEp" version="21.8.2" type="github">
  <diagram name="Page-1" id="2YBvvXClWsGukQMizWep">
    <mxGraphModel dx="583" dy="299" grid="1" gridSize="10" guides="1" tooltips="1" connect="1" arrows="1" fold="1" page="1" pageScale="1" pageWidth="850" pageHeight="1100" math="0" shadow="0">
      <root>
        <mxCell id="0" />
        <mxCell id="1" parent="0" />
        <mxCell id="4PACpi_-vSN5c5lg_NJ2-1" value="" style="rounded=0;whiteSpace=wrap;html=1;" parent="1" vertex="1">
          <mxGeometry x="10" y="10" width="1020" height="720" as="geometry" />
        </mxCell>
        <mxCell id="4PACpi_-vSN5c5lg_NJ2-31" value="" style="group;dashed=1;" parent="1" vertex="1" connectable="0">
          <mxGeometry x="30" y="264" width="940" height="460" as="geometry" />
        </mxCell>
        <mxCell id="4PACpi_-vSN5c5lg_NJ2-28" value="" style="rounded=0;whiteSpace=wrap;html=1;" parent="4PACpi_-vSN5c5lg_NJ2-31" vertex="1">
          <mxGeometry width="890" height="430" as="geometry" />
        </mxCell>
        <mxCell id="4PACpi_-vSN5c5lg_NJ2-29" value="alt" style="text;html=1;strokeColor=none;fillColor=none;align=center;verticalAlign=middle;whiteSpace=wrap;rounded=0;" parent="4PACpi_-vSN5c5lg_NJ2-31" vertex="1">
          <mxGeometry width="90" height="30" as="geometry" />
        </mxCell>
        <mxCell id="4PACpi_-vSN5c5lg_NJ2-30" value="" style="endArrow=none;html=1;rounded=0;exitX=0;exitY=1;exitDx=0;exitDy=0;entryX=1;entryY=0;entryDx=0;entryDy=0;" parent="4PACpi_-vSN5c5lg_NJ2-31" edge="1">
          <mxGeometry width="50" height="50" relative="1" as="geometry">
            <mxPoint y="30" as="sourcePoint" />
            <mxPoint x="90" as="targetPoint" />
            <Array as="points">
              <mxPoint x="70" y="30" />
              <mxPoint x="90" y="20" />
            </Array>
          </mxGeometry>
        </mxCell>
        <mxCell id="4PACpi_-vSN5c5lg_NJ2-33" value="" style="endArrow=none;dashed=1;html=1;rounded=0;" parent="4PACpi_-vSN5c5lg_NJ2-31" edge="1">
          <mxGeometry width="50" height="50" relative="1" as="geometry">
            <mxPoint y="118.16" as="sourcePoint" />
            <mxPoint x="890" y="116" as="targetPoint" />
          </mxGeometry>
        </mxCell>
        <mxCell id="4PACpi_-vSN5c5lg_NJ2-34" value="[true]" style="text;html=1;strokeColor=none;fillColor=none;align=center;verticalAlign=middle;whiteSpace=wrap;rounded=0;" parent="4PACpi_-vSN5c5lg_NJ2-31" vertex="1">
          <mxGeometry x="70" y="16" width="60" height="30" as="geometry" />
        </mxCell>
        <mxCell id="4PACpi_-vSN5c5lg_NJ2-35" value="[false]" style="text;html=1;strokeColor=none;fillColor=none;align=center;verticalAlign=middle;whiteSpace=wrap;rounded=0;" parent="4PACpi_-vSN5c5lg_NJ2-31" vertex="1">
          <mxGeometry x="70" y="126" width="60" height="30" as="geometry" />
        </mxCell>
        <mxCell id="4PACpi_-vSN5c5lg_NJ2-13" value="" style="html=1;points=[];perimeter=orthogonalPerimeter;outlineConnect=0;targetShapes=umlLifeline;portConstraint=eastwest;newEdgeStyle={&quot;edgeStyle&quot;:&quot;elbowEdgeStyle&quot;,&quot;elbow&quot;:&quot;vertical&quot;,&quot;curved&quot;:0,&quot;rounded&quot;:0};" parent="4PACpi_-vSN5c5lg_NJ2-31" vertex="1">
          <mxGeometry x="655" y="136" width="10" height="24" as="geometry" />
        </mxCell>
        <mxCell id="4PACpi_-vSN5c5lg_NJ2-47" value="" style="endArrow=classic;html=1;rounded=0;entryX=0.5;entryY=0;entryDx=0;entryDy=0;entryPerimeter=0;exitX=1;exitY=0;exitDx=0;exitDy=0;" parent="4PACpi_-vSN5c5lg_NJ2-31" source="4PACpi_-vSN5c5lg_NJ2-46" target="4PACpi_-vSN5c5lg_NJ2-13" edge="1">
          <mxGeometry width="50" height="50" relative="1" as="geometry">
            <mxPoint x="170" y="126" as="sourcePoint" />
            <mxPoint x="420" y="86" as="targetPoint" />
          </mxGeometry>
        </mxCell>
        <mxCell id="4PACpi_-vSN5c5lg_NJ2-49" value="" style="endArrow=classic;html=1;rounded=0;entryX=1.033;entryY=0.118;entryDx=0;entryDy=0;entryPerimeter=0;dashed=1;" parent="4PACpi_-vSN5c5lg_NJ2-31" source="4PACpi_-vSN5c5lg_NJ2-13" target="4PACpi_-vSN5c5lg_NJ2-46" edge="1">
          <mxGeometry width="50" height="50" relative="1" as="geometry">
            <mxPoint x="510" y="186" as="sourcePoint" />
            <mxPoint x="560" y="136" as="targetPoint" />
          </mxGeometry>
        </mxCell>
        <mxCell id="4PACpi_-vSN5c5lg_NJ2-50" value="return" style="text;html=1;strokeColor=none;fillColor=none;align=center;verticalAlign=middle;whiteSpace=wrap;rounded=0;" parent="4PACpi_-vSN5c5lg_NJ2-31" vertex="1">
          <mxGeometry x="490" y="136" width="60" height="30" as="geometry" />
        </mxCell>
        <mxCell id="4PACpi_-vSN5c5lg_NJ2-51" value="" style="endArrow=classic;html=1;rounded=0;exitX=1.054;exitY=0.43;exitDx=0;exitDy=0;exitPerimeter=0;" parent="4PACpi_-vSN5c5lg_NJ2-31" edge="1">
          <mxGeometry width="50" height="50" relative="1" as="geometry">
            <mxPoint x="169.54000000000002" y="225.99999999999994" as="sourcePoint" />
            <mxPoint x="285" y="225.99999999999994" as="targetPoint" />
          </mxGeometry>
        </mxCell>
        <mxCell id="4PACpi_-vSN5c5lg_NJ2-52" value="reservieren(reservierung)" style="text;html=1;strokeColor=none;fillColor=none;align=center;verticalAlign=middle;whiteSpace=wrap;rounded=0;" parent="4PACpi_-vSN5c5lg_NJ2-31" vertex="1">
          <mxGeometry x="180" y="196" width="120" height="30" as="geometry" />
        </mxCell>
        <mxCell id="4PACpi_-vSN5c5lg_NJ2-57" value="reservieren(reservierung)" style="text;html=1;strokeColor=none;fillColor=none;align=center;verticalAlign=middle;whiteSpace=wrap;rounded=0;" parent="4PACpi_-vSN5c5lg_NJ2-31" vertex="1">
          <mxGeometry x="370" y="226" width="60" height="30" as="geometry" />
        </mxCell>
        <mxCell id="4PACpi_-vSN5c5lg_NJ2-59" value="return" style="text;html=1;strokeColor=none;fillColor=none;align=center;verticalAlign=middle;whiteSpace=wrap;rounded=0;" parent="4PACpi_-vSN5c5lg_NJ2-31" vertex="1">
          <mxGeometry x="350" y="263" width="60" height="30" as="geometry" />
        </mxCell>
        <mxCell id="4PACpi_-vSN5c5lg_NJ2-60" value="" style="endArrow=classic;html=1;rounded=0;dashed=1;entryX=0.964;entryY=0.709;entryDx=0;entryDy=0;entryPerimeter=0;" parent="4PACpi_-vSN5c5lg_NJ2-31" edge="1">
          <mxGeometry width="50" height="50" relative="1" as="geometry">
            <mxPoint x="285.36" y="299.99600000000004" as="sourcePoint" />
            <mxPoint x="169" y="299.99600000000004" as="targetPoint" />
          </mxGeometry>
        </mxCell>
        <mxCell id="4PACpi_-vSN5c5lg_NJ2-61" value="return" style="text;html=1;strokeColor=none;fillColor=none;align=center;verticalAlign=middle;whiteSpace=wrap;rounded=0;" parent="4PACpi_-vSN5c5lg_NJ2-31" vertex="1">
          <mxGeometry x="180" y="276" width="60" height="30" as="geometry" />
        </mxCell>
        <mxCell id="4PACpi_-vSN5c5lg_NJ2-15" value="" style="html=1;points=[];perimeter=orthogonalPerimeter;outlineConnect=0;targetShapes=umlLifeline;portConstraint=eastwest;newEdgeStyle={&quot;edgeStyle&quot;:&quot;elbowEdgeStyle&quot;,&quot;elbow&quot;:&quot;vertical&quot;,&quot;curved&quot;:0,&quot;rounded&quot;:0};" parent="4PACpi_-vSN5c5lg_NJ2-31" vertex="1">
          <mxGeometry x="800" y="326" width="10" height="30" as="geometry" />
        </mxCell>
        <mxCell id="4PACpi_-vSN5c5lg_NJ2-64" value="" style="endArrow=classic;html=1;rounded=0;entryX=0;entryY=0;entryDx=0;entryDy=0;entryPerimeter=0;exitX=1.14;exitY=0.86;exitDx=0;exitDy=0;exitPerimeter=0;" parent="4PACpi_-vSN5c5lg_NJ2-31" source="4PACpi_-vSN5c5lg_NJ2-46" target="4PACpi_-vSN5c5lg_NJ2-15" edge="1">
          <mxGeometry width="50" height="50" relative="1" as="geometry">
            <mxPoint x="170" y="326" as="sourcePoint" />
            <mxPoint x="570" y="246" as="targetPoint" />
          </mxGeometry>
        </mxCell>
        <mxCell id="4PACpi_-vSN5c5lg_NJ2-65" value="" style="endArrow=classic;html=1;rounded=0;entryX=1;entryY=1;entryDx=0;entryDy=0;dashed=1;" parent="4PACpi_-vSN5c5lg_NJ2-31" source="4PACpi_-vSN5c5lg_NJ2-15" target="4PACpi_-vSN5c5lg_NJ2-46" edge="1">
          <mxGeometry width="50" height="50" relative="1" as="geometry">
            <mxPoint x="540" y="266" as="sourcePoint" />
            <mxPoint x="590" y="216" as="targetPoint" />
          </mxGeometry>
        </mxCell>
        <mxCell id="4PACpi_-vSN5c5lg_NJ2-66" value="speichern(Reservierungsliste)" style="text;html=1;strokeColor=none;fillColor=none;align=center;verticalAlign=middle;whiteSpace=wrap;rounded=0;" parent="4PACpi_-vSN5c5lg_NJ2-31" vertex="1">
          <mxGeometry x="465" y="300" width="200" height="30" as="geometry" />
        </mxCell>
        <mxCell id="4PACpi_-vSN5c5lg_NJ2-67" value="return" style="text;html=1;strokeColor=none;fillColor=none;align=center;verticalAlign=middle;whiteSpace=wrap;rounded=0;" parent="4PACpi_-vSN5c5lg_NJ2-31" vertex="1">
          <mxGeometry x="535" y="330" width="60" height="30" as="geometry" />
        </mxCell>
        <mxCell id="4PACpi_-vSN5c5lg_NJ2-70" value="GUI(&quot;&lt;font style=&quot;font-size: 11px;&quot;&gt;Koffer W&amp;nbsp;fÃ¼r &lt;br&gt;X&amp;nbsp;am Datum Y&amp;nbsp;in &lt;br&gt;Stunde Z&amp;nbsp;reserviert.&lt;/font&gt;&lt;span style=&quot;background-color: rgb(251, 251, 251); font-size: 12px;&quot;&gt;&quot;)&lt;/span&gt;" style="html=1;verticalAlign=bottom;endArrow=open;endSize=8;edgeStyle=elbowEdgeStyle;elbow=horizontal;curved=0;rounded=0;" parent="4PACpi_-vSN5c5lg_NJ2-31" source="aM9ryv3xv72pqoxQDRHE-2" edge="1">
          <mxGeometry relative="1" as="geometry">
            <mxPoint x="30" y="406" as="targetPoint" />
            <Array as="points">
              <mxPoint x="65" y="406" />
            </Array>
            <mxPoint x="150" y="503.6190476190476" as="sourcePoint" />
          </mxGeometry>
        </mxCell>
        <mxCell id="4PACpi_-vSN5c5lg_NJ2-46" value="" style="rounded=0;whiteSpace=wrap;html=1;" parent="4PACpi_-vSN5c5lg_NJ2-31" vertex="1">
          <mxGeometry x="159" y="136" width="10" height="224" as="geometry" />
        </mxCell>
        <mxCell id="4PACpi_-vSN5c5lg_NJ2-11" value="" style="html=1;points=[];perimeter=orthogonalPerimeter;outlineConnect=0;targetShapes=umlLifeline;portConstraint=eastwest;newEdgeStyle={&quot;edgeStyle&quot;:&quot;elbowEdgeStyle&quot;,&quot;elbow&quot;:&quot;vertical&quot;,&quot;curved&quot;:0,&quot;rounded&quot;:0};direction=west;fillColor=#FFFFFF;" parent="4PACpi_-vSN5c5lg_NJ2-31" vertex="1">
          <mxGeometry x="285" y="226" width="10" height="74" as="geometry" />
        </mxCell>
        <mxCell id="4PACpi_-vSN5c5lg_NJ2-53" value="" style="html=1;points=[];perimeter=orthogonalPerimeter;outlineConnect=0;targetShapes=umlLifeline;portConstraint=eastwest;newEdgeStyle={&quot;edgeStyle&quot;:&quot;elbowEdgeStyle&quot;,&quot;elbow&quot;:&quot;vertical&quot;,&quot;curved&quot;:0,&quot;rounded&quot;:0};direction=west;" parent="4PACpi_-vSN5c5lg_NJ2-31" vertex="1">
          <mxGeometry x="465" y="257" width="10" height="29" as="geometry" />
        </mxCell>
        <mxCell id="4PACpi_-vSN5c5lg_NJ2-56" value="" style="endArrow=classic;html=1;rounded=0;exitX=0.987;exitY=0.302;exitDx=0;exitDy=0;exitPerimeter=0;" parent="4PACpi_-vSN5c5lg_NJ2-31" source="gyjT6i7KtQavE3veBmn5-4" edge="1">
          <mxGeometry width="50" height="50" relative="1" as="geometry">
            <mxPoint x="295" y="257" as="sourcePoint" />
            <mxPoint x="465" y="257" as="targetPoint" />
          </mxGeometry>
        </mxCell>
        <mxCell id="aM9ryv3xv72pqoxQDRHE-1" value="reservierungsliste : Reservierungsliste" style="shape=umlLifeline;perimeter=lifelinePerimeter;whiteSpace=wrap;html=1;container=0;dropTarget=0;collapsible=0;recursiveResize=0;outlineConnect=0;portConstraint=eastwest;newEdgeStyle={&quot;edgeStyle&quot;:&quot;elbowEdgeStyle&quot;,&quot;elbow&quot;:&quot;vertical&quot;,&quot;curved&quot;:0,&quot;rounded&quot;:0};" parent="1" vertex="1">
          <mxGeometry x="135" y="60" width="105" height="670" as="geometry" />
        </mxCell>
        <mxCell id="aM9ryv3xv72pqoxQDRHE-2" value="" style="html=1;points=[];perimeter=orthogonalPerimeter;outlineConnect=0;targetShapes=umlLifeline;portConstraint=eastwest;newEdgeStyle={&quot;edgeStyle&quot;:&quot;elbowEdgeStyle&quot;,&quot;elbow&quot;:&quot;vertical&quot;,&quot;curved&quot;:0,&quot;rounded&quot;:0};" parent="aM9ryv3xv72pqoxQDRHE-1" vertex="1">
          <mxGeometry x="47.5" y="130" width="10" height="480" as="geometry" />
        </mxCell>
        <mxCell id="aM9ryv3xv72pqoxQDRHE-7" value="istReserviert(datum, &lt;br&gt;stunde, name, koffer)" style="html=1;verticalAlign=bottom;endArrow=block;edgeStyle=elbowEdgeStyle;elbow=vertical;curved=0;rounded=0;entryX=0;entryY=0;entryDx=0;entryDy=0;exitX=1;exitY=0;exitDx=0;exitDy=0;" parent="1" source="4PACpi_-vSN5c5lg_NJ2-44" target="4PACpi_-vSN5c5lg_NJ2-21" edge="1">
          <mxGeometry relative="1" as="geometry">
            <mxPoint x="200" y="210" as="sourcePoint" />
            <Array as="points" />
            <mxPoint x="365" y="210" as="targetPoint" />
          </mxGeometry>
        </mxCell>
        <mxCell id="aM9ryv3xv72pqoxQDRHE-8" value="return" style="html=1;verticalAlign=bottom;endArrow=open;dashed=1;endSize=8;edgeStyle=elbowEdgeStyle;elbow=vertical;curved=0;rounded=0;entryX=1;entryY=0.75;entryDx=0;entryDy=0;" parent="1" target="4PACpi_-vSN5c5lg_NJ2-21" edge="1">
          <mxGeometry relative="1" as="geometry">
            <mxPoint x="327.5" y="239.99999999999977" as="targetPoint" />
            <Array as="points">
              <mxPoint x="420" y="240" />
            </Array>
            <mxPoint x="495" y="240" as="sourcePoint" />
          </mxGeometry>
        </mxCell>
        <mxCell id="4PACpi_-vSN5c5lg_NJ2-3" value="sd reservieren" style="text;html=1;strokeColor=none;fillColor=none;align=center;verticalAlign=middle;whiteSpace=wrap;rounded=0;" parent="1" vertex="1">
          <mxGeometry x="10" y="10" width="90" height="30" as="geometry" />
        </mxCell>
        <mxCell id="4PACpi_-vSN5c5lg_NJ2-4" value="" style="endArrow=none;html=1;rounded=0;exitX=0;exitY=1;exitDx=0;exitDy=0;entryX=1;entryY=0;entryDx=0;entryDy=0;" parent="1" source="4PACpi_-vSN5c5lg_NJ2-3" target="4PACpi_-vSN5c5lg_NJ2-3" edge="1">
          <mxGeometry width="50" height="50" relative="1" as="geometry">
            <mxPoint x="60" y="90" as="sourcePoint" />
            <mxPoint x="110" y="40" as="targetPoint" />
            <Array as="points">
              <mxPoint x="80" y="40" />
              <mxPoint x="100" y="30" />
            </Array>
          </mxGeometry>
        </mxCell>
        <mxCell id="4PACpi_-vSN5c5lg_NJ2-5" value=": Benutzer" style="shape=umlActor;verticalLabelPosition=bottom;verticalAlign=top;html=1;outlineConnect=0;" parent="1" vertex="1">
          <mxGeometry x="40" y="50" width="30" height="60" as="geometry" />
        </mxCell>
        <mxCell id="4PACpi_-vSN5c5lg_NJ2-7" value="" style="endArrow=none;dashed=1;html=1;rounded=0;" parent="1" edge="1">
          <mxGeometry width="50" height="50" relative="1" as="geometry">
            <mxPoint x="60" y="139.99563380281654" as="sourcePoint" />
            <mxPoint x="60" y="730" as="targetPoint" />
          </mxGeometry>
        </mxCell>
        <mxCell id="4PACpi_-vSN5c5lg_NJ2-10" value="&lt;div&gt;endknoten : Endknoten &lt;/div&gt;" style="shape=umlLifeline;perimeter=lifelinePerimeter;whiteSpace=wrap;html=1;container=0;dropTarget=0;collapsible=0;recursiveResize=0;outlineConnect=0;portConstraint=eastwest;newEdgeStyle={&quot;edgeStyle&quot;:&quot;elbowEdgeStyle&quot;,&quot;elbow&quot;:&quot;vertical&quot;,&quot;curved&quot;:0,&quot;rounded&quot;:0};" parent="1" vertex="1">
          <mxGeometry x="450" y="60" width="100" height="670" as="geometry" />
        </mxCell>
        <mxCell id="4PACpi_-vSN5c5lg_NJ2-12" value="reservierung : Reservierung" style="shape=umlLifeline;perimeter=lifelinePerimeter;whiteSpace=wrap;html=1;container=0;dropTarget=0;collapsible=0;recursiveResize=0;outlineConnect=0;portConstraint=eastwest;newEdgeStyle={&quot;edgeStyle&quot;:&quot;elbowEdgeStyle&quot;,&quot;elbow&quot;:&quot;vertical&quot;,&quot;curved&quot;:0,&quot;rounded&quot;:0};" parent="1" vertex="1">
          <mxGeometry x="640" y="60" width="100" height="670" as="geometry" />
        </mxCell>
        <mxCell id="4PACpi_-vSN5c5lg_NJ2-14" value="ks: KompositumSerializer" style="shape=umlLifeline;perimeter=lifelinePerimeter;whiteSpace=wrap;html=1;container=0;dropTarget=0;collapsible=0;recursiveResize=0;outlineConnect=0;portConstraint=eastwest;newEdgeStyle={&quot;edgeStyle&quot;:&quot;elbowEdgeStyle&quot;,&quot;elbow&quot;:&quot;vertical&quot;,&quot;curved&quot;:0,&quot;rounded&quot;:0};" parent="1" vertex="1">
          <mxGeometry x="770" y="60" width="130" height="670" as="geometry" />
        </mxCell>
        <mxCell id="4PACpi_-vSN5c5lg_NJ2-19" value="" style="endArrow=classic;html=1;rounded=0;entryX=-0.25;entryY=0;entryDx=0;entryDy=0;entryPerimeter=0;" parent="1" source="4PACpi_-vSN5c5lg_NJ2-16" target="aM9ryv3xv72pqoxQDRHE-2" edge="1">
          <mxGeometry width="50" height="50" relative="1" as="geometry">
            <mxPoint x="60" y="190" as="sourcePoint" />
            <mxPoint x="170" y="190" as="targetPoint" />
          </mxGeometry>
        </mxCell>
        <mxCell id="4PACpi_-vSN5c5lg_NJ2-20" value="" style="endArrow=classic;html=1;rounded=0;" parent="1" target="aM9ryv3xv72pqoxQDRHE-2" edge="1">
          <mxGeometry width="50" height="50" relative="1" as="geometry">
            <mxPoint x="60" y="190" as="sourcePoint" />
            <mxPoint x="180" y="190" as="targetPoint" />
          </mxGeometry>
        </mxCell>
        <mxCell id="4PACpi_-vSN5c5lg_NJ2-16" value="reservieren(datum, &lt;br&gt;stunde, name, koffer)" style="text;html=1;align=center;verticalAlign=middle;resizable=0;points=[];autosize=1;strokeColor=none;fillColor=none;" parent="1" vertex="1">
          <mxGeometry x="52.5" y="150" width="140" height="40" as="geometry" />
        </mxCell>
        <mxCell id="4PACpi_-vSN5c5lg_NJ2-21" value="" style="rounded=0;whiteSpace=wrap;html=1;" parent="1" vertex="1">
          <mxGeometry x="315" y="210" width="10" height="40" as="geometry" />
        </mxCell>
        <mxCell id="4PACpi_-vSN5c5lg_NJ2-22" value="" style="rounded=0;whiteSpace=wrap;html=1;" parent="1" vertex="1">
          <mxGeometry x="495" y="220" width="10" height="20" as="geometry" />
        </mxCell>
        <mxCell id="4PACpi_-vSN5c5lg_NJ2-23" value="istReserviert(datum, &lt;br&gt;stunde, name, koffer)" style="html=1;verticalAlign=bottom;endArrow=block;edgeStyle=elbowEdgeStyle;elbow=vertical;curved=0;rounded=0;entryX=0.25;entryY=0;entryDx=0;entryDy=0;" parent="1" target="4PACpi_-vSN5c5lg_NJ2-22" edge="1">
          <mxGeometry relative="1" as="geometry">
            <mxPoint x="325" y="220.24" as="sourcePoint" />
            <Array as="points" />
            <mxPoint x="447" y="220.24" as="targetPoint" />
          </mxGeometry>
        </mxCell>
        <mxCell id="4PACpi_-vSN5c5lg_NJ2-25" value="return" style="html=1;verticalAlign=bottom;endArrow=open;dashed=1;endSize=8;edgeStyle=elbowEdgeStyle;elbow=vertical;curved=0;rounded=0;exitX=0;exitY=1;exitDx=0;exitDy=0;entryX=1;entryY=1;entryDx=0;entryDy=0;" parent="1" source="4PACpi_-vSN5c5lg_NJ2-21" target="4PACpi_-vSN5c5lg_NJ2-44" edge="1">
          <mxGeometry relative="1" as="geometry">
            <mxPoint x="192.49999999999997" y="249.9000000000001" as="targetPoint" />
            <Array as="points" />
            <mxPoint x="297.41" y="240" as="sourcePoint" />
          </mxGeometry>
        </mxCell>
        <mxCell id="4PACpi_-vSN5c5lg_NJ2-26" value="GUI(&quot;Keine &lt;br&gt;Reservierung in dieser &lt;br&gt;Stunde mÃ¶glich&lt;span style=&quot;background-color: rgb(251, 251, 251); font-size: 12px;&quot;&gt;&quot;)&lt;/span&gt;" style="html=1;verticalAlign=bottom;endArrow=open;endSize=8;edgeStyle=elbowEdgeStyle;elbow=vertical;curved=0;rounded=0;" parent="1" source="aM9ryv3xv72pqoxQDRHE-1" edge="1">
          <mxGeometry relative="1" as="geometry">
            <mxPoint x="59.62" y="360" as="targetPoint" />
            <Array as="points">
              <mxPoint x="104.62" y="360" />
            </Array>
            <mxPoint x="185.37000000000023" y="360" as="sourcePoint" />
          </mxGeometry>
        </mxCell>
        <mxCell id="4PACpi_-vSN5c5lg_NJ2-44" value="" style="rounded=0;whiteSpace=wrap;html=1;" parent="1" vertex="1">
          <mxGeometry x="187.5" y="210" width="10" height="40" as="geometry" />
        </mxCell>
        <mxCell id="4PACpi_-vSN5c5lg_NJ2-48" value="&amp;lt;&amp;lt;create&amp;gt;&amp;gt;" style="text;html=1;strokeColor=none;fillColor=none;align=center;verticalAlign=middle;whiteSpace=wrap;rounded=0;" parent="1" vertex="1">
          <mxGeometry x="315" y="378" width="235" height="30" as="geometry" />
        </mxCell>
        <mxCell id="4PACpi_-vSN5c5lg_NJ2-8" value=": Datenknoten " style="shape=umlLifeline;perimeter=lifelinePerimeter;whiteSpace=wrap;html=1;container=0;dropTarget=0;collapsible=0;recursiveResize=0;outlineConnect=0;portConstraint=eastwest;newEdgeStyle={&quot;edgeStyle&quot;:&quot;elbowEdgeStyle&quot;,&quot;elbow&quot;:&quot;vertical&quot;,&quot;curved&quot;:0,&quot;rounded&quot;:0};" parent="1" vertex="1">
          <mxGeometry x="270" y="60" width="100" height="670" as="geometry" />
        </mxCell>
        <mxCell id="gyjT6i7KtQavE3veBmn5-3" value="" style="endArrow=classic;html=1;rounded=0;" edge="1" parent="1">
          <mxGeometry width="50" height="50" relative="1" as="geometry">
            <mxPoint x="325" y="500" as="sourcePoint" />
            <mxPoint x="330" y="510" as="targetPoint" />
            <Array as="points">
              <mxPoint x="360" y="500" />
              <mxPoint x="360" y="510" />
            </Array>
          </mxGeometry>
        </mxCell>
        <mxCell id="gyjT6i7KtQavE3veBmn5-4" value="" style="rounded=0;whiteSpace=wrap;html=1;" vertex="1" parent="1">
          <mxGeometry x="320" y="510" width="10" height="40" as="geometry" />
        </mxCell>
        <mxCell id="4PACpi_-vSN5c5lg_NJ2-58" value="" style="endArrow=classic;html=1;rounded=0;dashed=1;entryX=1;entryY=1;entryDx=0;entryDy=0;" parent="1" edge="1" target="gyjT6i7KtQavE3veBmn5-4" source="4PACpi_-vSN5c5lg_NJ2-53">
          <mxGeometry width="50" height="50" relative="1" as="geometry">
            <mxPoint x="495" y="554.6" as="sourcePoint" />
            <mxPoint x="325" y="554.6" as="targetPoint" />
          </mxGeometry>
        </mxCell>
      </root>
    </mxGraphModel>
  </diagram>
</mxfile>
